HIERARCHY
ROOT Hips
{
	OFFSET 0.00000 0.00000 0.00000
	CHANNELS 6 Xposition Yposition Zposition Zrotation Yrotation Xrotation 
	JOINT LHipJoint
	{
		OFFSET 0 0 0
		CHANNELS 3 Zrotation Yrotation Xrotation
		JOINT LeftUpLeg
		{
			OFFSET 1.44361 -1.63093 0.70831
			CHANNELS 3 Zrotation Yrotation Xrotation
			JOINT LeftLeg
			{
				OFFSET 2.20103 -6.04728 0.00000
				CHANNELS 3 Zrotation Yrotation Xrotation
				JOINT LeftFoot
				{
					OFFSET 2.54154 -6.98283 0.00000
					CHANNELS 3 Zrotation Yrotation Xrotation
					JOINT LeftToeBase
					{
						OFFSET 0.05971 -0.16406 1.77582
						CHANNELS 3 Zrotation Yrotation Xrotation
						End Site
						{
							OFFSET 0.00000 -0.00000 0.90832
						}
					}
				}
			}
		}
	}
	JOINT RHipJoint
	{
		OFFSET 0 0 0
		CHANNELS 3 Zrotation Yrotation Xrotation
		JOINT RightUpLeg
		{
			OFFSET -1.65838 -1.63093 0.70830
			CHANNELS 3 Zrotation Yrotation Xrotation
			JOINT RightLeg
			{
				OFFSET -2.26926 -6.23475 0.00000
				CHANNELS 3 Zrotation Yrotation Xrotation
				JOINT RightFoot
				{
					OFFSET -2.34808 -6.45129 0.00000
					CHANNELS 3 Zrotation Yrotation Xrotation
					JOINT RightToeBase
					{
						OFFSET -0.18633 -0.51195 1.68539
						CHANNELS 3 Zrotation Yrotation Xrotation
						End Site
						{
							OFFSET -0.00000 -0.00000 0.88927
						}
					}
				}
			}
		}
	}
	JOINT LowerBack
	{
		OFFSET 0 0 0
		CHANNELS 3 Zrotation Yrotation Xrotation
		JOINT Spine
		{
			OFFSET -0.10393 2.01691 0.06920
			CHANNELS 3 Zrotation Yrotation Xrotation
			JOINT Spine1
			{
				OFFSET 0.04092 2.01302 -0.05283
				CHANNELS 3 Zrotation Yrotation Xrotation
				JOINT Neck
				{
					OFFSET 0 0 0
					CHANNELS 3 Zrotation Yrotation Xrotation
					JOINT Neck1
					{
						OFFSET -0.02870 1.58978 -0.03113
						CHANNELS 3 Zrotation Yrotation Xrotation
						JOINT Head
						{
							OFFSET 0.11532 1.54326 -0.29195
							CHANNELS 3 Zrotation Yrotation Xrotation
							End Site
							{
								OFFSET 0.04056 1.59999 -0.09535
							}
						}
					}
				}
				JOINT LeftShoulder
				{
					OFFSET 0 0 0
					CHANNELS 3 Zrotation Yrotation Xrotation
					JOINT LeftArm
					{
						OFFSET 3.30641 1.15764 0.01104
						CHANNELS 3 Zrotation Yrotation Xrotation
						JOINT LeftForeArm
						{
							OFFSET 4.63208 -0.00000 0.00000
							CHANNELS 3 Zrotation Yrotation Xrotation
							JOINT LeftHand
							{
								OFFSET 3.41924 -0.00000 -0.00000
								CHANNELS 3 Zrotation Yrotation Xrotation
								JOINT LeftFingerBase
								{
									OFFSET 0 0 0
									CHANNELS 3 Zrotation Yrotation Xrotation
									JOINT LeftHandIndex1
									{
										OFFSET 0.62537 -0.00000 -0.00000
										CHANNELS 3 Zrotation Yrotation Xrotation
										End Site
										{
											OFFSET 0.50419 -0.00000 -0.00000
										}
									}
								}
								JOINT LThumb
								{
									OFFSET 0 0 0
									CHANNELS 3 Zrotation Yrotation Xrotation
									End Site
									{
										OFFSET 0.51189 -0.00000 0.51189
									}
								}
							}
						}
					}
				}
				JOINT RightShoulder
				{
					OFFSET 0 0 0
					CHANNELS 3 Zrotation Yrotation Xrotation
					JOINT RightArm
					{
						OFFSET -3.78081 1.02180 -0.16609
						CHANNELS 3 Zrotation Yrotation Xrotation
						JOINT RightForeArm
						{
							OFFSET -4.40640 -0.00000 -0.00000
							CHANNELS 3 Zrotation Yrotation Xrotation
							JOINT RightHand
							{
								OFFSET -3.44675 -0.00000 0.00000
								CHANNELS 3 Zrotation Yrotation Xrotation
								JOINT RightFingerBase
								{
									OFFSET 0 0 0
									CHANNELS 3 Zrotation Yrotation Xrotation
									JOINT RightHandIndex1
									{
										OFFSET -0.51367 -0.00000 -0.00000
										CHANNELS 3 Zrotation Yrotation Xrotation
										End Site
										{
											OFFSET -0.41414 -0.00000 -0.00000
										}
									}
								}
								JOINT RThumb
								{
									OFFSET 0 0 0
									CHANNELS 3 Zrotation Yrotation Xrotation
									End Site
									{
										OFFSET -0.42046 -0.00000 0.42046
									}
								}
							}
						}
					}
				}
			}
		}
	}
}
MOTION
Frames: 6
Frame Time: .0083333
9.7066 16.3810 1.1206 -202.4580 -54.9771 -135.2880 0.0000 0.0000 0.0000 -10.9061 -14.2875 -5.7660 0.1954 2.8467 7.8523 3.6225 2.0971 -36.8254 0.9609 6.2416 17.4869 0.0000 0.0000 0.0000 -10.0418 13.9539 -39.7092 -1.9133 -8.6831 24.8088 -0.4495 0.1466 -12.6163 -2.9639 10.6363 -31.0630 3.8383 2.7286 7.8552 3.8067 3.8387 2.1196 1.4174 1.8171 -2.2089 -0.8388 3.9569 1.3390 -5.0358 4.6922 -9.6002 -1.6391 2.4663 -3.2131 0.0000 0.0000 0.0000 -83.4701 1.8709 -33.5290 25.0587 -36.2640 -8.3246 -0.0000 0.0000 -42.2762 56.9919 -17.4033 -24.7225 -7.1250 0.0000 -0.0000 17.8008 1.2756 -18.3135 0.0000 0.0000 0.0000 90.7070 19.1244 82.5138 -97.5507 59.7835 -66.5343 0.0000 0.0000 9.4091 -26.2618 -33.6062 15.2744 7.1250 -0.0000 -0.0000 8.4274 -66.3379 -4.3499
9.6956 16.3826 1.1109 -202.6520 -55.3374 -134.8690 0.0000 0.0000 0.0000 -10.6395 -14.7642 -6.0289 0.1982 2.8667 7.9078 3.6627 2.1000 -37.0270 1.0578 6.5395 18.3582 0.0000 0.0000 0.0000 -10.0253 13.7889 -39.7972 -1.9202 -8.6977 24.8543 -0.4633 0.0192 -12.8533 -2.9416 10.5999 -30.9422 4.2080 2.6398 7.4877 3.8702 3.7216 2.1216 1.3063 1.7593 -1.9826 -0.9082 4.5465 0.7754 -5.7138 5.4700 -9.0569 -1.8344 2.8633 -2.8877 -0.0000 -0.0000 0.0000 -83.6521 1.7748 -33.6973 25.2833 -36.4921 -8.4578 -0.0000 0.0000 -41.9582 56.8982 -17.5106 -24.7744 -7.1250 0.0000 -0.0000 17.7192 1.1700 -18.2550 -0.0000 -0.0000 0.0000 90.5861 19.3065 82.5444 -97.9486 59.7599 -66.8781 0.0000 0.0000 9.1480 -26.3460 -33.3447 15.2278 7.1250 -0.0000 -0.0000 8.1156 -66.0987 -4.1435
9.6857 16.3812 1.1000 -203.2560 -55.3149 -134.3270 0.0000 0.0000 0.0000 -10.9374 -14.8887 -6.0257 0.1937 2.8341 7.8173 3.6233 2.9199 -37.1243 0.9659 6.2575 17.5335 0.0000 0.0000 0.0000 -10.3820 13.6197 -39.7342 -1.9270 -8.7122 24.8992 -0.4755 -0.0138 -13.0348 -2.8744 10.4889 -30.5748 4.0617 2.6245 7.3245 3.8053 3.6809 2.1602 1.3324 1.7440 -1.8577 -0.5245 5.1120 0.4379 -6.7786 6.1912 -8.7384 -2.2401 3.2304 -2.6556 0.0000 0.0000 0.0000 -83.7005 1.6818 -33.8054 25.4821 -36.6927 -8.5763 -0.0000 0.0000 -41.6509 56.7360 -17.4644 -24.5843 -7.1250 0.0000 -0.0000 17.6424 1.3288 -18.1157 0.0000 0.0000 0.0000 90.2717 19.2939 82.4918 -99.1817 59.6790 -67.9430 0.0000 0.0000 8.8601 -26.5390 -33.7123 15.4932 7.1250 -0.0000 -0.0000 8.1561 -66.5262 -4.2443
9.6819 16.3803 1.0872 -203.6460 -55.3894 -134.0770 0.0000 0.0000 0.0000 -11.0369 -14.8397 -5.9575 0.1878 2.7913 7.6982 3.5621 3.7158 -37.1214 0.9017 6.0516 16.9342 0.0000 0.0000 0.0000 -10.5046 13.5982 -39.5045 -1.9250 -8.7081 24.8863 -0.4864 -0.0976 -13.2126 -2.8170 10.3928 -30.2583 4.0353 2.6984 7.3579 3.7367 3.7806 2.1686 1.2664 1.7950 -1.8643 -0.1220 5.7040 0.0762 -7.6693 6.9783 -8.3164 -2.5836 3.6212 -2.3776 0.0000 -0.0000 0.0000 -83.4766 1.5798 -33.4890 25.6148 -36.8258 -8.6557 -0.0000 0.0000 -41.4883 56.5930 -17.1809 -24.1259 -7.1250 0.0000 -0.0000 17.6419 1.8251 -17.9524 0.0000 -0.0000 0.0000 90.4917 19.2793 82.1579 -99.1371 59.6822 -67.9045 0.0000 0.0000 8.8319 -27.9159 -33.6999 16.3818 7.1250 -0.0000 -0.0000 6.3532 -66.9211 -3.3599
9.6853 16.3809 1.0761 -203.8170 -55.6818 -133.9360 0.0000 0.0000 0.0000 -10.7993 -14.8493 -6.0751 0.1872 2.7867 7.6855 3.5433 3.8974 -37.0989 0.9670 6.2610 17.5435 0.0000 0.0000 0.0000 -10.3637 13.5726 -39.3941 -1.9378 -8.7353 24.9707 -0.5004 -0.1758 -13.4306 -2.7865 10.3412 -30.0887 4.2493 2.7661 7.4463 3.7185 3.8937 2.1211 1.1139 1.8489 -1.9458 -0.2258 6.4947 0.1578 -8.2746 7.9964 -8.4126 -2.7835 4.1500 -2.3626 0.0000 0.0000 0.0000 -83.2459 1.4628 -33.0618 25.7586 -36.9693 -8.7421 -0.0000 0.0000 -41.3834 56.8313 -17.1599 -24.2946 -7.1250 0.0000 -0.0000 17.7799 1.7249 -18.1412 0.0000 0.0000 0.0000 90.5841 19.2113 81.8056 -99.2617 59.6734 -68.0121 0.0000 0.0000 8.5693 -28.4981 -33.7550 16.7868 7.1250 -0.0000 -0.0000 5.6225 -67.1512 -3.0020
9.6802 16.3855 1.0670 -204.1710 -55.8364 -133.7660 0.0000 0.0000 0.0000 -10.9117 -15.1972 -5.8515 0.1834 2.7583 7.6065 3.6499 3.4267 -37.4464 1.1159 6.7108 18.8613 0.0000 0.0000 0.0000 -10.4471 13.4485 -39.1501 -1.9457 -8.7520 25.0225 -0.5153 -0.1863 -13.6318 -2.7501 10.2790 -29.8851 4.4443 2.8841 7.6185 3.5798 4.0773 2.1095 0.8380 1.9396 -2.0274 0.1793 7.0954 -0.3519 -9.4541 8.7978 -7.8774 -3.2009 4.5424 -1.9888 -0.0000 0.0000 0.0000 -82.9746 1.3569 -32.4375 25.9582 -37.1674 -8.8624 -0.0000 0.0000 -41.3678 57.1986 -17.5483 -25.0713 -7.1250 0.0000 -0.0000 17.8742 0.9444 -18.5064 -0.0000 0.0000 0.0000 90.5511 19.0628 81.3057 -99.6262 59.6469 -68.3266 0.0000 0.0000 8.5428 -28.2007 -33.8232 16.6189 7.1250 -0.0000 -0.0000 6.0701 -67.1318 -3.2390
